<?xml version="1.0" encoding="UTF-8" standalone="no"?>
<!-- Created with Inkscape (http://www.inkscape.org/) -->

<svg
   xmlns:dc="http://purl.org/dc/elements/1.1/"
   xmlns:cc="http://creativecommons.org/ns#"
   xmlns:rdf="http://www.w3.org/1999/02/22-rdf-syntax-ns#"
   xmlns:svg="http://www.w3.org/2000/svg"
   xmlns="http://www.w3.org/2000/svg"
   xmlns:sodipodi="http://sodipodi.sourceforge.net/DTD/sodipodi-0.dtd"
   xmlns:inkscape="http://www.inkscape.org/namespaces/inkscape"
   width="50"
   height="50"
   viewBox="0 0 50 49.999997"
   id="svg2"
   version="1.1"
   inkscape:version="0.91 r13725"
   sodipodi:docname="time.svg">
  <defs
     id="defs4" />
  <sodipodi:namedview
     id="base"
     pagecolor="#ffffff"
     bordercolor="#666666"
     borderopacity="1.0"
     inkscape:pageopacity="0.0"
     inkscape:pageshadow="2"
     inkscape:zoom="1.1443359"
     inkscape:cx="244.02689"
     inkscape:cy="79.480357"
     inkscape:document-units="px"
     inkscape:current-layer="layer1"
     showgrid="false"
     inkscape:window-width="1638"
     inkscape:window-height="989"
     inkscape:window-x="280"
     inkscape:window-y="31"
     inkscape:window-maximized="1"
     fit-margin-top="0"
     fit-margin-left="0"
     fit-margin-right="0"
     fit-margin-bottom="0"
     units="px" />
  <metadata
     id="metadata7">
    <rdf:RDF>
      <cc:Work
         rdf:about="">
        <dc:format>image/svg+xml</dc:format>
        <dc:type
           rdf:resource="http://purl.org/dc/dcmitype/StillImage" />
        <dc:title></dc:title>
      </cc:Work>
    </rdf:RDF>
  </metadata>
  <g
     inkscape:label="Calque 1"
     inkscape:groupmode="layer"
     id="layer1"
     transform="translate(-125.60491,-565.33805)">
    <path
       style="opacity:1;fill:#ffffff;fill-opacity:1;stroke:none;stroke-width:10;stroke-linecap:round;stroke-linejoin:round;stroke-miterlimit:4;stroke-dasharray:none;stroke-opacity:1"
       d="m 148.30738,568.28048 c -1.05095,0 -1.89699,0.84603 -1.89699,1.89698 l 0,1.39133 c 0,1.05095 0.84604,1.89698 1.89699,1.89698 l 4.59569,0 c 1.05093,0 1.89699,-0.84603 1.89699,-1.89698 l 0,-1.39133 c 0,-1.05095 -0.84604,-1.89698 -1.89699,-1.89698 l -4.59569,0 z m 15.54533,5.74008 c -0.29671,0.0218 -0.58484,0.15713 -0.79549,0.40117 l -1.16309,1.34717 c -0.42135,0.48808 -0.36741,1.22062 0.12068,1.64198 l 0.64558,0.55727 c 0.48809,0.42136 1.22064,0.36805 1.642,-0.12004 l 1.16305,-1.34716 c 0.42136,-0.48807 0.36743,-1.22063 -0.12066,-1.64199 l -0.64621,-0.55727 c -0.24403,-0.21068 -0.54915,-0.3029 -0.84586,-0.28113 z m -13.24717,2.75592 a 17.809812,17.80981 0 0 0 -17.8105,17.80924 17.809812,17.80981 0 0 0 17.8105,17.80989 17.809812,17.80981 0 0 0 17.80924,-17.80989 17.809812,17.80981 0 0 0 -17.80924,-17.80924 z m 0,1.382 a 16.427316,16.427315 0 0 1 16.42662,16.42724 16.427316,16.427315 0 0 1 -16.42662,16.42727 16.427316,16.427315 0 0 1 -16.42788,-16.42727 16.427316,16.427315 0 0 1 16.42788,-16.42724 z m -6.5e-4,1.48835 c -0.20988,0 -1.23721,8.03158 -1.5263,11.47085 a 3.7940627,3.7940627 0 0 0 -2.26765,3.46866 3.7940627,3.7940627 0 0 0 3.79397,3.79398 3.7940627,3.7940627 0 0 0 3.79395,-3.79398 3.7940627,3.7940627 0 0 0 -2.26767,-3.47116 c -0.28936,-3.44072 -1.31644,-11.46835 -1.52628,-11.46835 z"
       id="path4142"
       inkscape:connector-curvature="0" />
  </g>
</svg>
